<svg width="232" height="68" viewBox="0 0 232 68" fill="none" xmlns="http://www.w3.org/2000/svg">
<path d="M64.6108 16.2024C63.0363 9.89221 58.1092 4.96521 51.7988 3.39069C40.0059 1.53644 27.9957 1.53644 16.2027 3.39069C9.8924 4.96521 4.96528 9.89221 3.39072 16.2024C1.53643 27.995 1.53643 40.005 3.39072 51.7976C4.96528 58.1078 9.8924 63.0348 16.2027 64.6093C27.9957 66.4636 40.0059 66.4636 51.7988 64.6093C58.1092 63.0348 63.0363 58.1078 64.6108 51.7976C66.463 40.0048 66.463 27.9952 64.6108 16.2024Z" fill="#3F51C1"/>
<path fill-rule="evenodd" clip-rule="evenodd" d="M52.7 50H41.3C39.1889 50 37.5 48.98 37.5 47C37.5 45.02 39.21 44 41.3 44H52.7C54.8111 44 56.5 45.02 56.5 47C56.5 48.98 54.79 50 52.7 50Z" fill="white"/>
<path fill-rule="evenodd" clip-rule="evenodd" d="M27.3287 35.8266C31.7448 32.9998 35.4921 29.2129 38.3018 24.7373C39.1866 23.2833 39.2336 21.4564 38.4247 19.9572C37.6158 18.458 36.0765 17.519 34.3971 17.5003C32.7176 17.4815 31.1585 18.3859 30.3175 19.8667C28.8858 22.1862 27.0816 24.2443 24.9804 25.9549C22.9326 24.2003 21.1488 22.149 19.686 19.8667C18.3654 17.6091 15.498 16.8692 13.2814 18.2142C11.0648 19.5592 10.3384 22.4797 11.659 24.7373C14.4436 29.204 18.1611 32.9904 22.5467 35.8266C24.0188 36.7245 25.8566 36.7245 27.3287 35.8266Z" fill="white"/>
<path fill-rule="evenodd" clip-rule="evenodd" d="M29.5 35V47C29.5 49.2222 27.97 51 25 51C22.03 51 20.5 49.2 20.5 47V35C20.5 32.7778 22.03 31 25 31C27.97 31 29.5 32.8 29.5 35Z" fill="white"/>
<path d="M95.2733 50.9733C92.1915 50.9733 89.4873 50.3044 87.1608 48.9666C84.8645 47.6289 83.097 45.7134 81.8582 43.2202C80.6194 40.7271 80 37.8083 80 34.4638C80 31.1194 80.6194 28.2158 81.8582 25.7531C83.097 23.2599 84.8645 21.3445 87.1608 20.0067C89.4873 18.6689 92.1915 18 95.2733 18C97.2675 18 99.1407 18.304 100.893 18.9121C102.646 19.4898 104.202 20.3411 105.561 21.4661C105.954 21.7701 106.226 22.0894 106.377 22.4238C106.528 22.7583 106.604 23.1687 106.604 23.6552C106.604 24.3241 106.422 24.8865 106.06 25.3426C105.697 25.7987 105.259 26.0267 104.745 26.0267C104.141 26.0267 103.522 25.8139 102.887 25.3882C101.588 24.4153 100.38 23.7464 99.2616 23.3815C98.1437 22.9863 96.9049 22.7887 95.5452 22.7887C92.403 22.7887 90.016 23.7768 88.3845 25.7531C86.7831 27.7293 85.9824 30.6329 85.9824 34.4638C85.9824 38.3252 86.7831 41.244 88.3845 43.2202C90.016 45.1965 92.403 46.1846 95.5452 46.1846C96.8445 46.1846 98.0379 45.987 99.1256 45.5918C100.244 45.1965 101.497 44.5276 102.887 43.5851C103.189 43.4027 103.492 43.2507 103.794 43.129C104.096 43.0074 104.413 42.9466 104.745 42.9466C105.259 42.9466 105.697 43.1746 106.06 43.6307C106.422 44.0868 106.604 44.6492 106.604 45.3181C106.604 45.7742 106.528 46.1847 106.377 46.5495C106.226 46.8839 105.954 47.2032 105.561 47.5072C104.202 48.6322 102.646 49.4987 100.893 50.1068C99.1407 50.6845 97.2675 50.9733 95.2733 50.9733Z" fill="#4A4A4A"/>
<path d="M123.587 27.8053C124.373 27.7445 124.992 27.9118 125.445 28.307C125.899 28.7023 126.125 29.2951 126.125 30.0856C126.125 30.9066 125.929 31.5146 125.536 31.9099C125.143 32.3052 124.433 32.5636 123.406 32.6852L122.046 32.822C120.264 33.0044 118.949 33.6125 118.103 34.6463C117.287 35.68 116.88 36.9722 116.88 38.5228V48.1001C116.88 48.9818 116.608 49.6659 116.064 50.1524C115.52 50.6085 114.84 50.8365 114.024 50.8365C113.209 50.8365 112.529 50.6085 111.985 50.1524C111.471 49.6659 111.214 48.9818 111.214 48.1001V30.4505C111.214 29.5992 111.471 28.9455 111.985 28.4894C112.529 28.0334 113.193 27.8053 113.979 27.8053C114.765 27.8053 115.399 28.0334 115.883 28.4894C116.366 28.9151 116.608 29.5384 116.608 30.3593V32.1835C117.182 30.8458 118.028 29.812 119.146 29.0823C120.294 28.3526 121.563 27.9422 122.953 27.8509L123.587 27.8053Z" fill="#4A4A4A"/>
<path d="M145.391 29.4472C145.632 28.8999 145.95 28.5046 146.342 28.2614C146.765 27.9878 147.219 27.8509 147.702 27.8509C148.397 27.8509 149.016 28.0942 149.56 28.5806C150.134 29.0367 150.421 29.6144 150.421 30.3137C150.421 30.6481 150.331 30.9978 150.149 31.3626L137.777 57.4494C137.263 58.4831 136.462 59 135.375 59C134.68 59 134.06 58.772 133.516 58.3159C133.003 57.8902 132.746 57.343 132.746 56.6741C132.746 56.3396 132.837 55.9596 133.018 55.5339L136.1 49.0122L127.67 31.3626C127.519 31.0586 127.443 30.7089 127.443 30.3137C127.443 29.6144 127.73 29.0215 128.304 28.535C128.909 28.0486 129.589 27.8053 130.344 27.8053C130.858 27.8053 131.326 27.9422 131.749 28.2158C132.172 28.459 132.504 28.8543 132.746 29.4016L139.091 43.4939L145.391 29.4472Z" fill="#4A4A4A"/>
<path d="M166.527 27.7141C168.431 27.7141 170.123 28.2006 171.603 29.1735C173.114 30.1465 174.277 31.5298 175.093 33.3237C175.939 35.0871 176.362 37.1242 176.362 39.4349C176.362 41.7456 175.939 43.7675 175.093 45.5006C174.277 47.2336 173.129 48.5714 171.648 49.5139C170.168 50.4564 168.461 50.9277 166.527 50.9277C164.956 50.9277 163.551 50.5933 162.312 49.9244C161.073 49.2555 160.122 48.3281 159.457 47.1424V56.4461C159.457 57.2366 159.2 57.8598 158.686 58.3159C158.173 58.772 157.493 59 156.647 59C155.801 59 155.106 58.7568 154.562 58.2703C154.049 57.7838 153.792 57.1453 153.792 56.3548V30.4961C153.792 29.6752 154.033 29.0215 154.517 28.535C155.031 28.0486 155.71 27.8053 156.556 27.8053C157.402 27.8053 158.082 28.0486 158.596 28.535C159.109 29.0215 159.366 29.6752 159.366 30.4961V31.6363C160.031 30.3897 160.983 29.432 162.222 28.7631C163.491 28.0638 164.926 27.7141 166.527 27.7141ZM165.031 46.5039C166.814 46.5039 168.204 45.8958 169.201 44.6796C170.198 43.4331 170.697 41.6848 170.697 39.4349C170.697 37.1242 170.198 35.3304 169.201 34.0534C168.204 32.7764 166.814 32.1379 165.031 32.1379C163.219 32.1379 161.814 32.7612 160.817 34.0078C159.85 35.2544 159.366 37.033 159.366 39.3437C159.366 41.624 159.85 43.3875 160.817 44.634C161.814 45.8806 163.219 46.5039 165.031 46.5039Z" fill="#4A4A4A"/>
<path d="M192.39 46.5951C193.901 46.6863 194.656 47.3704 194.656 48.6474C194.656 49.3771 194.354 49.9396 193.75 50.3348C193.176 50.6997 192.345 50.8517 191.257 50.7909L190.033 50.6997C184.957 50.3348 182.419 47.5984 182.419 42.4905V32.5484H180.153C179.337 32.5484 178.703 32.366 178.25 32.0011C177.827 31.6363 177.615 31.1042 177.615 30.4049C177.615 29.7056 177.827 29.1735 178.25 28.8087C178.703 28.4438 179.337 28.2614 180.153 28.2614H182.419V24.0656C182.419 23.2447 182.676 22.591 183.19 22.1046C183.703 21.6181 184.398 21.3749 185.275 21.3749C186.121 21.3749 186.8 21.6181 187.314 22.1046C187.828 22.591 188.084 23.2447 188.084 24.0656V28.2614H191.937C192.753 28.2614 193.372 28.4438 193.795 28.8087C194.248 29.1735 194.475 29.7056 194.475 30.4049C194.475 31.1042 194.248 31.6363 193.795 32.0011C193.372 32.366 192.753 32.5484 191.937 32.5484H188.084V42.901C188.084 45.1509 189.112 46.3519 191.166 46.5039L192.39 46.5951Z" fill="#4A4A4A"/>
<path d="M207.715 50.9277C205.449 50.9277 203.455 50.4564 201.733 49.5139C200.041 48.5714 198.726 47.2184 197.79 45.4549C196.853 43.6915 196.385 41.6392 196.385 39.2981C196.385 36.957 196.853 34.9199 197.79 33.1869C198.726 31.4234 200.041 30.0704 201.733 29.1279C203.455 28.1854 205.449 27.7141 207.715 27.7141C209.981 27.7141 211.96 28.1854 213.652 29.1279C215.374 30.0704 216.689 31.4234 217.595 33.1869C218.532 34.9199 219 36.957 219 39.2981C219 41.6392 218.532 43.6915 217.595 45.4549C216.689 47.2184 215.374 48.5714 213.652 49.5139C211.96 50.4564 209.981 50.9277 207.715 50.9277ZM207.67 46.5039C209.513 46.5039 210.918 45.8958 211.885 44.6796C212.851 43.4635 213.335 41.6696 213.335 39.2981C213.335 36.957 212.851 35.1783 211.885 33.9622C210.918 32.7156 209.528 32.0923 207.715 32.0923C205.902 32.0923 204.497 32.7156 203.5 33.9622C202.533 35.1783 202.05 36.957 202.05 39.2981C202.05 41.6696 202.533 43.4635 203.5 44.6796C204.467 45.8958 205.857 46.5039 207.67 46.5039Z" fill="#4A4A4A"/>
</svg>
