<svg width="64" height="64" viewBox="0 0 64 64" fill="none" xmlns="http://www.w3.org/2000/svg">
<path d="M62.6108 14.2024C61.0363 7.89221 56.1092 2.96521 49.7988 1.39069C38.0059 -0.463563 25.9957 -0.463563 14.2027 1.39069C7.8924 2.96521 2.96528 7.89221 1.39072 14.2024C-0.463574 25.995 -0.463574 38.005 1.39072 49.7976C2.96528 56.1078 7.8924 61.0348 14.2027 62.6093C25.9957 64.4636 38.0059 64.4636 49.7988 62.6093C56.1092 61.0348 61.0363 56.1078 62.6108 49.7976C64.4631 38.0048 64.4631 25.9952 62.6108 14.2024Z" fill="#3F51C1"/>
<path fill-rule="evenodd" clip-rule="evenodd" d="M50.7 48H39.3C37.1889 48 35.5 46.98 35.5 45C35.5 43.02 37.21 42 39.3 42H50.7C52.8111 42 54.5 43.02 54.5 45C54.5 46.98 52.79 48 50.7 48Z" fill="white"/>
<path fill-rule="evenodd" clip-rule="evenodd" d="M25.3287 33.8266C29.7448 30.9998 33.4921 27.2129 36.3018 22.7373C37.1866 21.2833 37.2336 19.4564 36.4247 17.9572C35.6158 16.458 34.0765 15.519 32.3971 15.5003C30.7176 15.4815 29.1585 16.3859 28.3175 17.8667C26.8858 20.1862 25.0816 22.2443 22.9804 23.9549C20.9326 22.2003 19.1488 20.149 17.686 17.8667C16.3654 15.6091 13.498 14.8692 11.2814 16.2142C9.06485 17.5592 8.33844 20.4797 9.65896 22.7373C12.4436 27.204 16.1611 30.9904 20.5467 33.8266C22.0188 34.7245 23.8566 34.7245 25.3287 33.8266Z" fill="white"/>
<path fill-rule="evenodd" clip-rule="evenodd" d="M27.5 33V45C27.5 47.2222 25.97 49 23 49C20.03 49 18.5 47.2 18.5 45V33C18.5 30.7778 20.03 29 23 29C25.97 29 27.5 30.8 27.5 33Z" fill="white"/>
</svg>
